<svg xmlns="http://www.w3.org/2000/svg" width="1200" height="630" viewBox="0 0 1200 630" role="img" aria-labelledby="title desc">
  <title id="title">토토사이트 정보 기본 공유 이미지</title>
  <desc id="desc">후기, 먹튀 제보, 도메인 기록을 정리하는 정보형 리포트 사이트를 나타내는 어두운 리포트형 이미지</desc>
  <defs>
    <linearGradient id="bg" x1="0" x2="1" y1="0" y2="1">
      <stop offset="0" stop-color="#07111f"/>
      <stop offset="0.58" stop-color="#101827"/>
      <stop offset="1" stop-color="#18181b"/>
    </linearGradient>
    <linearGradient id="panel" x1="0" x2="1" y1="0" y2="1">
      <stop offset="0" stop-color="#172133"/>
      <stop offset="1" stop-color="#0c1320"/>
    </linearGradient>
    <linearGradient id="mark" x1="0" x2="1" y1="0" y2="1">
      <stop offset="0" stop-color="#2dd4bf"/>
      <stop offset="1" stop-color="#38bdf8"/>
    </linearGradient>
    <filter id="shadow" x="-20%" y="-20%" width="140%" height="140%">
      <feDropShadow dx="0" dy="18" stdDeviation="24" flood-color="#000000" flood-opacity="0.36"/>
    </filter>
    <pattern id="grid" width="48" height="48" patternUnits="userSpaceOnUse">
      <path d="M48 0H0V48" fill="none" stroke="#253047" stroke-width="1" opacity="0.3"/>
    </pattern>
  </defs>

  <rect width="1200" height="630" fill="url(#bg)"/>
  <rect width="1200" height="630" fill="url(#grid)"/>

  <g opacity="0.18">
    <circle cx="210" cy="118" r="82" fill="#38bdf8"/>
    <circle cx="1006" cy="508" r="112" fill="#2dd4bf"/>
    <circle cx="1022" cy="130" r="54" fill="#f59e0b"/>
  </g>

  <g transform="translate(96 72)">
    <rect width="1008" height="486" rx="28" fill="url(#panel)" stroke="#2b394f" filter="url(#shadow)"/>
    <rect x="34" y="34" width="940" height="418" rx="22" fill="#0b1220" stroke="#23314a"/>

    <g transform="translate(102 96)">
      <rect width="110" height="110" rx="28" fill="#0f1b2c" stroke="#31445f"/>
      <rect x="30" y="24" width="42" height="52" rx="8" fill="#e5eefb"/>
      <path d="M72 24l18 18H72z" fill="#b8c7d9"/>
      <path d="M38 45h26M38 59h34M38 73h20" stroke="#64748b" stroke-width="5" stroke-linecap="round"/>
      <circle cx="82" cy="78" r="21" fill="#0d332b" stroke="#2dd4bf" stroke-width="4"/>
      <path d="M72 78l7 7 15-18" fill="none" stroke="#a7f3d0" stroke-width="6" stroke-linecap="round" stroke-linejoin="round"/>
    </g>

    <g transform="translate(258 102)">
      <text x="0" y="64" fill="#f8fafc" font-family="Malgun Gothic, Segoe UI, Arial, sans-serif" font-size="68" font-weight="800" letter-spacing="0">토토사이트 정보</text>
      <text x="2" y="124" fill="#cbd5e1" font-family="Malgun Gothic, Segoe UI, Arial, sans-serif" font-size="31" font-weight="600" letter-spacing="0">후기 · 먹튀 제보 · 도메인 기록</text>
    </g>

    <g transform="translate(140 286)">
      <rect width="260" height="94" rx="18" fill="#111b2a" stroke="#2d3c52"/>
      <circle cx="48" cy="47" r="22" fill="#0f2f29" stroke="#2dd4bf" stroke-width="3"/>
      <path d="M38 47l8 8 17-21" fill="none" stroke="#a7f3d0" stroke-width="6" stroke-linecap="round" stroke-linejoin="round"/>
      <rect x="86" y="30" width="122" height="12" rx="6" fill="#e2e8f0" opacity="0.92"/>
      <rect x="86" y="55" width="92" height="10" rx="5" fill="#64748b" opacity="0.85"/>
    </g>

    <g transform="translate(472 286)">
      <rect width="260" height="94" rx="18" fill="#111b2a" stroke="#2d3c52"/>
      <circle cx="48" cy="47" r="22" fill="#33230f" stroke="#f59e0b" stroke-width="3"/>
      <path d="M48 34v20M48 64h.1" fill="none" stroke="#fde68a" stroke-width="7" stroke-linecap="round"/>
      <rect x="86" y="30" width="128" height="12" rx="6" fill="#e2e8f0" opacity="0.92"/>
      <rect x="86" y="55" width="106" height="10" rx="5" fill="#64748b" opacity="0.85"/>
    </g>

    <g transform="translate(804 286)">
      <rect width="160" height="94" rx="18" fill="#111b2a" stroke="#2d3c52"/>
      <circle cx="54" cy="43" r="20" fill="#102742" stroke="#38bdf8" stroke-width="3"/>
      <path d="M44 43h20M54 33v20M70 61l18 18" fill="none" stroke="#bae6fd" stroke-width="5" stroke-linecap="round"/>
      <rect x="32" y="70" width="72" height="9" rx="5" fill="#64748b" opacity="0.8"/>
    </g>
  </g>

  <rect x="172" y="116" width="856" height="398" rx="22" fill="none" stroke="#ffffff" stroke-opacity="0.04"/>
</svg>
