<svg xmlns="http://www.w3.org/2000/svg" width="1200" height="630" viewBox="0 0 1200 630" role="img" aria-labelledby="title desc">
  <title id="title">사이트 검증 리포트 공유 이미지</title>
  <desc id="desc">사이트별 후기, 제보, 도메인 정보를 카드 형태로 정리한 검증 리포트 이미지</desc>
  <defs>
    <linearGradient id="bg" x1="0" x2="1" y1="0" y2="1">
      <stop offset="0" stop-color="#08111f"/>
      <stop offset="0.58" stop-color="#111827"/>
      <stop offset="1" stop-color="#171717"/>
    </linearGradient>
    <filter id="shadow" x="-20%" y="-20%" width="140%" height="140%">
      <feDropShadow dx="0" dy="18" stdDeviation="24" flood-color="#000000" flood-opacity="0.34"/>
    </filter>
    <pattern id="grid" width="42" height="42" patternUnits="userSpaceOnUse">
      <path d="M42 0H0V42" fill="none" stroke="#2a3445" stroke-width="1" opacity="0.28"/>
    </pattern>
  </defs>
  <rect width="1200" height="630" fill="url(#bg)"/>
  <rect width="1200" height="630" fill="url(#grid)"/>
  <rect x="80" y="72" width="1040" height="486" rx="24" fill="#101827" stroke="#2c3748" filter="url(#shadow)"/>
  <g transform="translate(140 122)">
    <rect width="166" height="38" rx="19" fill="#0f2f27" stroke="#00b67a"/>
    <text x="83" y="25" text-anchor="middle" fill="#78f0bf" font-family="Segoe UI, Malgun Gothic, Arial, sans-serif" font-size="16" font-weight="700">SITE REPORT</text>
    <text x="0" y="112" fill="#f8fafc" font-family="Segoe UI, Malgun Gothic, Arial, sans-serif" font-size="58" font-weight="800">사이트 검증 리포트</text>
    <text x="0" y="162" fill="#aeb9c9" font-family="Segoe UI, Malgun Gothic, Arial, sans-serif" font-size="25">후기, 제보, 도메인 정보를 한 화면에서 비교</text>

    <g transform="translate(0 228)">
      <rect width="188" height="110" rx="16" fill="#151f2e" stroke="#2e3a4e"/>
      <text x="26" y="42" fill="#78f0bf" font-family="Segoe UI, Malgun Gothic, Arial, sans-serif" font-size="18" font-weight="800">후기</text>
      <rect x="26" y="62" width="136" height="10" rx="5" fill="#4b5563"/>
      <rect x="26" y="84" width="96" height="10" rx="5" fill="#2f3a4c"/>
    </g>
    <g transform="translate(212 228)">
      <rect width="188" height="110" rx="16" fill="#151f2e" stroke="#2e3a4e"/>
      <text x="26" y="42" fill="#ffd28a" font-family="Segoe UI, Malgun Gothic, Arial, sans-serif" font-size="18" font-weight="800">제보</text>
      <rect x="26" y="62" width="136" height="10" rx="5" fill="#4b5563"/>
      <rect x="26" y="84" width="110" height="10" rx="5" fill="#2f3a4c"/>
    </g>
    <g transform="translate(424 228)">
      <rect width="188" height="110" rx="16" fill="#151f2e" stroke="#2e3a4e"/>
      <text x="26" y="42" fill="#b9ecff" font-family="Segoe UI, Malgun Gothic, Arial, sans-serif" font-size="18" font-weight="800">도메인</text>
      <rect x="26" y="62" width="136" height="10" rx="5" fill="#4b5563"/>
      <rect x="26" y="84" width="82" height="10" rx="5" fill="#2f3a4c"/>
    </g>
  </g>
  <g transform="translate(812 128)">
    <rect width="232" height="306" rx="22" fill="#f8fafc"/>
    <rect x="28" y="34" width="102" height="14" rx="7" fill="#111827"/>
    <rect x="28" y="76" width="176" height="52" rx="14" fill="#eef6ff" stroke="#38bdf8"/>
    <rect x="48" y="97" width="94" height="10" rx="5" fill="#111827"/>
    <rect x="28" y="154" width="176" height="52" rx="14" fill="#e7f8f1" stroke="#00b67a"/>
    <path d="M50 181l10 10 22-26" fill="none" stroke="#00a36e" stroke-width="8" stroke-linecap="round" stroke-linejoin="round"/>
    <rect x="28" y="232" width="176" height="12" rx="6" fill="#cbd5e1"/>
    <rect x="28" y="260" width="126" height="12" rx="6" fill="#cbd5e1"/>
  </g>
</svg>
